<?xml version="1.0" standalone="no"?>
<!DOCTYPE svg PUBLIC "-//W3C//DTD SVG 20010904//EN"
 "http://www.w3.org/TR/2001/REC-SVG-20010904/DTD/svg10.dtd">
<svg version="1.0" xmlns="http://www.w3.org/2000/svg"
 width="1024.000000pt" height="1024.000000pt" viewBox="0 0 1024.000000 1024.000000"
 preserveAspectRatio="xMidYMid meet">

<g transform="translate(0.000000,1024.000000) scale(0.100000,-0.100000)"
fill="#000000" stroke="none">
<path d="M4849 8079 c-450 -32 -920 -186 -1307 -430 -724 -455 -1178 -1135
-1331 -1995 -46 -258 -53 -625 -16 -878 64 -446 249 -905 508 -1266 208 -289
476 -548 762 -736 659 -433 1515 -572 2295 -375 165 42 215 63 213 87 -1 11
-79 176 -172 368 -145 295 -174 347 -188 341 -41 -15 -226 -56 -328 -72 -133
-21 -405 -23 -548 -4 -390 50 -774 225 -1083 492 -327 284 -579 712 -668 1137
-69 330 -58 716 31 1022 157 546 556 1035 1051 1288 298 153 551 219 872 229
297 9 515 -20 754 -99 100 -33 303 -127 400 -185 131 -78 296 -212 448 -363
l158 -156 33 35 c19 20 96 110 173 201 76 91 174 205 216 254 43 48 78 95 78
103 0 20 -209 226 -335 331 -227 189 -597 403 -877 505 -247 91 -509 147 -773
167 -153 11 -207 11 -366 -1z"/>
<path d="M4555 6451 c-7 -12 2 -33 255 -556 117 -242 265 -552 330 -690 65
-137 204 -430 310 -650 290 -603 630 -1314 655 -1370 75 -164 275 -565 283
-565 9 0 126 237 287 585 54 116 191 410 305 655 184 394 368 793 647 1400 47
102 146 316 221 475 74 160 141 305 149 323 12 29 116 256 160 349 8 18 12 37
8 42 -4 8 -135 11 -399 11 l-393 0 -103 -217 c-196 -415 -539 -1140 -685
-1448 -81 -170 -154 -327 -162 -347 -8 -21 -19 -38 -24 -38 -6 0 -34 51 -63
113 -29 61 -152 317 -273 567 -121 250 -316 655 -433 900 -117 245 -217 451
-223 458 -12 15 -842 18 -852 3z"/>
</g>
</svg>
